<svg width="106" height="50" viewBox="0 0 106 50" fill="none" xmlns="http://www.w3.org/2000/svg">
<rect width="106" height="50" fill="white"/>
<path d="M63.6978 24.8068H66.2208V26.472H66.2582C66.3703 26.2118 66.5386 25.9516 66.7628 25.7088C66.9684 25.4659 67.2114 25.2751 67.4917 25.1017C67.7534 24.9282 68.0524 24.8068 68.3701 24.7027C68.6692 24.616 69.0056 24.5813 69.342 24.564C69.5102 24.564 69.6971 24.5987 69.9213 24.6507V26.9403C69.7905 26.923 69.641 26.9056 69.4728 26.8883C69.2859 26.8709 69.1177 26.8536 68.9682 26.8536C68.4823 26.8536 68.0711 26.9403 67.7347 27.0791C67.3983 27.2352 67.1179 27.4433 66.9123 27.7035C66.7068 27.9637 66.5572 28.2586 66.4825 28.6055C66.389 28.9524 66.3517 29.334 66.3517 29.7329V33.8149H63.6978V24.8068Z" fill="#10239E"/>
<path d="M60.1235 28.328C59.9927 27.7035 59.7684 27.2352 59.4507 26.9056C59.133 26.5934 58.647 26.4373 58.0116 26.4199C57.5817 26.4199 57.2266 26.4893 56.9463 26.6281C56.666 26.7669 56.4417 26.923 56.2735 27.1138C56.1053 27.3219 55.9931 27.5301 55.9184 27.7382C55.8436 27.9637 55.8062 28.1545 55.8062 28.328H60.1235ZM55.8062 29.8891C55.8436 30.687 56.0492 31.2767 56.4604 31.6236C56.8529 31.9879 57.4322 32.1613 58.1798 32.1613C58.7031 32.1613 59.1704 32.0399 59.5628 31.7971C59.9366 31.5542 60.1796 31.2767 60.273 30.9992H62.6092C62.2354 32.0746 61.6561 32.8551 60.8898 33.3061C60.1048 33.7745 59.1704 34 58.0864 34C57.3201 34 56.6286 33.8959 56.0305 33.6704C55.4138 33.4449 54.8905 33.1153 54.4793 32.699C54.0494 32.2827 53.713 31.7971 53.4888 31.2073C53.2645 30.6349 53.1523 29.9931 53.1523 29.2993C53.1523 28.6402 53.2645 28.0157 53.5074 27.426C53.7317 26.8536 54.0681 26.3506 54.5167 25.9343C54.9465 25.518 55.4698 25.1711 56.0679 24.9282C56.666 24.6854 57.3388 24.564 58.0864 24.564C58.9087 24.564 59.6189 24.7201 60.2357 25.015C60.8337 25.3098 61.3383 25.7088 61.7308 26.1944C62.1233 26.6975 62.4036 27.2699 62.5905 27.8943C62.7587 28.5361 62.8148 29.1952 62.7774 29.8891H55.8062Z" fill="#10239E"/>
<path d="M49.8929 33.815H46.9399L43.6489 24.8069H46.4337L48.4708 30.9299H48.5082L50.5453 24.8069H53.1806L49.8929 33.815Z" fill="#10239E"/>
<path d="M40.9902 28.328C40.8594 27.7035 40.6351 27.2352 40.3174 26.9056C39.9997 26.5934 39.5137 26.4373 38.8783 26.4199C38.4484 26.4199 38.0933 26.4893 37.813 26.6281C37.5327 26.7669 37.3084 26.923 37.1402 27.1138C36.972 27.3219 36.8598 27.5301 36.7851 27.7382C36.7103 27.9637 36.6729 28.1545 36.6729 28.328H40.9902ZM36.6729 29.8891C36.7103 30.687 36.9159 31.2767 37.3271 31.6236C37.7196 31.9879 38.2989 32.1613 39.0465 32.1613C39.5698 32.1613 40.0371 32.0399 40.4295 31.7971C40.8033 31.5542 41.0463 31.2767 41.1397 30.9992H43.4759C43.1021 32.0746 42.5227 32.8552 41.7565 33.3061C40.9715 33.7745 40.0371 34 38.9531 34C38.1868 34 37.4953 33.8959 36.8972 33.6704C36.2805 33.4449 35.7572 33.1153 35.346 32.699C34.9161 32.2827 34.5797 31.7971 34.3555 31.2073C34.1312 30.6349 34.019 29.9931 34.019 29.2993C34.019 28.6402 34.1312 28.0157 34.3741 27.426C34.5984 26.8536 34.9348 26.3506 35.3834 25.9343C35.8132 25.518 36.3365 25.1711 36.9346 24.9282C37.5327 24.6854 38.2055 24.564 38.9531 24.564C39.7754 24.564 40.4856 24.7201 41.1024 25.015C41.7004 25.3098 42.205 25.7088 42.5975 26.1944C42.99 26.6975 43.2703 27.2699 43.4572 27.8943C43.6254 28.5361 43.6815 29.1952 43.6441 29.8891H36.6729Z" fill="#10239E"/>
<path d="M30.4556 20.9792H33.0721V33.815H30.4556V20.9792Z" fill="#10239E"/>
<path d="M26.4983 25.3953C26.4421 25.086 26.3297 24.8111 26.1611 24.5533C25.9737 24.2956 25.7676 24.0722 25.5053 23.866C25.243 23.677 24.9432 23.5223 24.606 23.4192C24.2687 23.3161 23.9315 23.2646 23.5755 23.2474C22.901 23.2474 22.3389 23.3677 21.8892 23.6083C21.4208 23.8488 21.0461 24.1581 20.765 24.5533C20.4652 24.9485 20.2591 25.3953 20.128 25.8936C19.9968 26.4091 19.9406 26.9246 19.9406 27.4573C19.9406 27.9727 19.9968 28.4882 20.128 28.9694C20.2591 29.4505 20.4652 29.8972 20.765 30.2753C21.0461 30.6705 21.4208 30.9798 21.8892 31.2203C22.3389 31.4609 22.901 31.564 23.5755 31.564C24.4748 31.564 25.1681 31.3234 25.6739 30.8079C26.1798 30.3096 26.4983 29.6395 26.6107 28.8147H29.4587C29.3837 29.5879 29.1776 30.2753 28.8778 30.8939C28.5593 31.5124 28.1471 32.0451 27.6412 32.4747C27.1166 32.9215 26.5171 33.2479 25.8426 33.4713C25.1493 33.7119 24.3999 33.815 23.5755 33.815C22.545 33.815 21.6269 33.6603 20.8025 33.3338C19.9781 33.0074 19.3036 32.5606 18.7415 31.9764C18.1794 31.4094 17.7485 30.7392 17.4487 29.966C17.1489 29.1927 16.999 28.3508 16.999 27.4573C16.999 26.5466 17.1489 25.7046 17.4487 24.9142C17.7485 24.1237 18.1794 23.4364 18.7415 22.8522C19.3036 22.2852 19.9781 21.8212 20.8025 21.4776C21.6269 21.1511 22.545 20.9964 23.5755 20.9792C24.3062 20.9792 24.9994 21.0823 25.6552 21.2714C26.311 21.4776 26.8918 21.7525 27.4164 22.1305C27.941 22.5085 28.372 22.9553 28.7092 23.5052C29.0465 24.055 29.2526 24.6908 29.3463 25.3953H26.4983Z" fill="#10239E"/>
<path d="M86.1593 22.139H88.4562V24.6273H86.1593V29.382C86.1593 31.0002 86.259 30.9954 86.4584 31.185C86.6577 31.3746 87.0564 31.4694 87.6545 31.4694C87.8539 31.4931 88.0283 31.4694 88.2276 31.4457C88.4021 31.4457 88.6431 31.3114 88.7677 31.185V33.7918C88.4562 33.9256 88.1031 34.0761 87.7542 34.0761C87.3804 34.0998 87.0315 34.0998 86.6827 34.0998C86.6593 34.0998 86.2647 34.0998 86.0986 34.0761C85.6939 34.0184 85.0921 33.8036 84.7183 33.5903C84.5107 33.4718 83.9707 32.9386 83.9084 32.7017C83.7215 32.4054 83.6176 31.8248 83.6176 31.2087V24.6273H81.4165V22.139H83.6176V17.9919H86.1593V22.139Z" fill="#10239E"/>
<path fill-rule="evenodd" clip-rule="evenodd" d="M70.4526 24.6273H72.197V33.8155H74.988V24.6273H77.0563L77.0563 22.139H74.988L74.988 21.9258C74.988 21.4281 75.0876 20.9555 75.287 20.7422C75.4864 20.529 75.8352 20.4105 76.3336 20.4105C76.7822 20.4105 77.2058 20.4342 77.6294 20.4816V17.9919L76.6825 17.9919L75.748 17.9919C74.5643 17.9919 73.6298 18.566 73.0692 19.1176C72.3465 19.8285 72.197 20.6461 72.197 21.7125L72.197 22.139H70.4526L70.4526 24.6273ZM80.6696 25.6937H77.9534V33.8155H80.6696V25.6937Z" fill="#10239E"/>
<path d="M80.6696 23.4069C80.6696 24.1288 80.0832 24.7139 79.3613 24.7139C78.6394 24.7139 78.053 24.1287 78.053 23.4069C78.053 22.685 78.6394 22.0998 79.3613 22.0998C80.0832 22.0998 80.6696 22.685 80.6696 23.4069Z" fill="#40A9FF"/>
</svg>
